<svg xmlns="http://www.w3.org/2000/svg" width="48" height="48" viewBox="0 0 24 24" fill="none" stroke="#6c757d" stroke-width="1.5" stroke-linecap="round" stroke-linejoin="round">
  <circle cx="12" cy="12" r="3"/>
  <path d="M19.4 15a1.65 1.65 0 0 0 .33 1.82l.06.06a2 2 0 1 1-2.83 2.83l-.06-.06a1.65 1.65 0 0 0-1.82-.33 1.65 1.65 0 0 0-1 1.51V21a2 2 0 1 1-4 0v-.09a1.65 1.65 0 0 0-1-1.51 1.65 1.65 0 0 0-1.82.33l-.06.06A2 2 0 1 1 2.3 16.8l.06-.06c.5-.5.6-1.2.33-1.82A1.65 1.65 0 0 0 2.9 12V11a1.65 1.65 0 0 0-.33-1.82L2.5 9.12A2 2 0 1 1 5.33 6.3l.06.06c.5.5 1.2.6 1.82.33.6-.3 1-.9 1-1.6V4a2 2 0 1 1 4 0v.09c0 .7.4 1.3 1 1.6.62.27 1.32.17 1.82-.33l.06-.06A2 2 0 1 1 18.7 7.2l-.06.06c-.3.6-.2 1.3.33 1.82.5.5.6 1.2.33 1.82V12c.01.55-.17 1.09-.5 1.5z"/>
</svg>